<svg width="51" height="95" viewBox="0 0 51 95" fill="none" xmlns="http://www.w3.org/2000/svg">
<path d="M25.611 57.8129C22.211 62.0129 19.4111 65.4129 16.5111 68.9129C15.1111 70.6129 15.1111 72.6129 15.4111 74.6129C15.9111 78.2129 16.6111 81.8129 16.9111 85.4129C17.1111 87.7129 17.411 90.1129 16.311 92.1129C14.211 93.8129 13.1111 88.1129 10.9111 91.7129C10.6111 92.3129 10.0111 91.3129 10.0111 91.0128C8.61107 83.2128 5.51109 75.6128 7.91109 67.5128C8.91109 64.0128 10.711 60.7129 13.211 58.1129C16.711 54.4129 18.111 50.5129 16.811 45.4129C16.011 42.4129 15.6111 39.2129 15.9111 36.2129C16.3111 33.0129 14.9111 31.4129 12.5111 30.3129C4.91107 26.5129 2.01109 20.0129 0.911091 12.0129C0.511091 8.91285 -0.0889332 5.91287 0.0110668 2.81287C0.0110668 1.61287 0.611042 0.712864 1.61104 0.212864C2.91104 -0.487136 3.51099 0.71287 4.31099 1.31287C6.31099 3.01287 7.91104 4.71288 8.61104 7.41288C9.11104 9.51288 10.2111 11.5129 10.5111 13.6129C11.4111 20.0129 16.2111 22.9129 21.0111 25.9129C22.3111 26.7129 23.811 26.3129 25.211 26.4129C30.211 26.7129 35.111 27.4129 39.611 30.4129C43.511 33.0129 47.011 35.9129 50.211 39.4129C51.611 41.0129 50.911 44.2129 48.211 46.3129C44.511 49.2129 41.4111 52.9129 37.9111 56.0129C36.0111 57.7129 35.211 59.6129 35.211 62.1129C35.111 68.3129 34.9111 74.3129 40.0111 79.1129C42.2111 81.2129 43.611 84.1129 45.211 86.7129C46.811 89.3129 46.0111 91.2129 42.9111 93.4129C40.8111 94.9129 39.1111 95.0129 37.4111 92.7129C33.9111 88.1129 30.3111 83.4129 27.9111 78.2129C26.3111 74.6129 26.411 70.4129 26.311 66.4129C26.311 64.0129 26.711 61.4129 25.611 57.8129ZM35.711 45.0129C37.611 44.1129 39.4111 43.7129 38.4111 41.5129C38.0111 40.6129 36.711 39.6129 35.811 40.2129C34.011 41.4129 35.811 43.0129 35.711 45.0129Z" fill="#fff"/>
<path d="M17.8102 16.6129C17.8102 12.1129 18.8102 10.8129 22.8102 9.81293C24.2102 9.51293 25.7103 9.41291 27.1103 9.01291C29.2103 8.51291 29.8103 10.5129 31.1103 11.2129C33.2103 12.3129 32.2103 13.4129 31.4103 14.7129C30.8103 15.7129 31.2103 16.8129 31.4103 17.9129C31.8103 21.2129 31.0102 22.7129 27.8102 23.0129C25.1102 23.3129 22.3103 24.4129 19.9103 21.4129C18.5103 19.8129 17.5102 18.4129 17.8102 16.6129Z" fill="#fff"/>
</svg>
