<svg width="301" height="82" viewBox="0 0 301 82" fill="none" xmlns="http://www.w3.org/2000/svg">
<path d="M28.0722 18.2803L46.3525 18.2803L46.3525 -3.05176e-05L28.0722 -3.05184e-05L28.0722 18.2803Z" fill="#D2418D"/>
<path d="M9.8027 36.5494L28.083 36.5494L28.083 18.2691L9.8027 18.2691L9.8027 36.5494Z" fill="#D2418D"/>
<path d="M28.073 54.8372L46.3533 54.8372L46.3533 36.5569L28.073 36.5569L28.073 54.8372Z" fill="#D2418D"/>
<path d="M9.80392 73.1063L28.0842 73.1063L28.0842 54.826L9.80392 54.826L9.80392 73.1063Z" fill="#D2418D"/>
<path d="M36.832 27.0226L55.1123 27.0226L55.1123 8.74228L36.832 8.74228L36.832 27.0226Z" fill="#4DA0D4"/>
<path d="M36.8313 63.5787L55.1116 63.5787L55.1116 45.2984L36.8313 45.2984L36.8313 63.5787Z" fill="#4DA0D4"/>
<path d="M18.5632 45.3087L36.8435 45.3087L36.8435 27.0284L18.5632 27.0284L18.5632 45.3087Z" fill="#4DA0D4"/>
<path d="M18.5622 81.8479L36.8425 81.8479L36.8425 63.5676L18.5622 63.5676L18.5622 81.8479Z" fill="#4DA0D4"/>
<path d="M32.4519 22.6594L50.7322 22.6594L50.7322 4.37912L32.4519 4.37912L32.4519 22.6594Z" fill="white"/>
<path d="M14.1828 40.9287L32.4631 40.9287L32.4631 22.6484L14.1828 22.6484L14.1828 40.9287Z" fill="white"/>
<path d="M32.4519 59.1996L50.7322 59.1996L50.7322 40.9193L32.4519 40.9193L32.4519 59.1996Z" fill="white"/>
<path d="M14.1828 77.4857L32.4631 77.4857L32.4631 59.2054L14.1828 59.2054L14.1828 77.4857Z" fill="white"/>
<path d="M63.8879 72.3644H1.03345V9.51001H63.8879V72.3644ZM4.6929 68.688H60.2284V13.1695H4.6929V68.688Z" fill="white"/>
<path d="M64.9213 73.3979H0V8.47656H64.9213V73.3979ZM2.06691 71.331H62.8544V10.5435H2.06691V71.331ZM61.2619 69.7215H3.65945V12.1191H61.2619V69.7215ZM5.72636 67.6715H59.195V14.2029H5.72636V67.6715Z" fill="white"/>
<path d="M80.8807 36.5154V45.359H89.7921V42.5806H86.4885L83.2187 39.3277H94.6206V45.3421L91.0458 48.9338H79.6948L76.0522 45.3421V36.5662L79.6948 32.9067H95.1966L91.6388 36.4984H80.8807V36.5154Z" fill="white"/>
<path d="M97.7886 48.9168V36.4984L101.431 32.9067H113.561L117.204 36.4984V48.9168H112.376V44.3425H102.617V48.9507L97.7886 48.9168ZM102.617 36.5154V40.8186H112.376V36.5154H102.617Z" fill="white"/>
<path d="M120.66 48.9507V32.9237H126.115L133.062 42.4789L139.974 32.9237H145.446V48.9338H140.618V38.7178L134.62 46.9685H131.469L125.489 38.7178V48.9507H120.66Z" fill="white"/>
<path d="M149.055 32.9237H168.199L164.641 36.5154H153.883V39.3277H165.861L162.608 42.5806H153.883V45.3591H167.623L164.048 48.9507H149.055V32.9237Z" fill="white"/>
<path d="M187.208 39.3277L190.732 44.0206L187.106 48.9507H168.521L172.079 45.359H184.277L185.429 44.0545L184.26 42.5806H172.062L168.538 37.8368L172.181 32.9067H190.749L187.174 36.4984H174.993L173.824 37.8538L174.993 39.3277H187.208Z" fill="white"/>
<path d="M207.674 32.9237H212.502V45.3082L208.86 48.9507H196.729L193.087 45.3082V32.9237L197.915 32.9406V45.3591H207.674V32.9237Z" fill="white"/>
<path d="M215.975 48.9507V32.9237H221.43L228.377 42.4789L235.289 32.9237H240.761V48.9338H235.933V38.7178L229.935 46.9685H226.801L220.82 38.7178V48.9507H215.975Z" fill="white"/>
<path d="M244.37 48.9507V32.9237H249.825L256.771 42.4789L263.684 32.9237H269.156V48.9338H264.327V38.7178L258.33 46.9685H255.196L249.215 38.7178V48.9507H244.37Z" fill="white"/>
<path d="M272.764 32.9237H277.593V48.9507L272.764 48.9338V32.9237Z" fill="white"/>
<path d="M279.541 32.9237H301.006L297.449 36.5154H292.688V48.9338H287.859V36.5154H283.099L279.541 32.9237Z" fill="white"/>
</svg>
