<svg width="85" height="107" viewBox="0 0 85 107" fill="none" xmlns="http://www.w3.org/2000/svg">
<path d="M36.6988 23.8979L60.5967 23.8979L60.5967 6.29425e-05L36.6988 6.29414e-05L36.6988 23.8979Z" fill="#D2418D"/>
<path d="M12.815 47.7812L36.7129 47.7812L36.7129 23.8834L12.815 23.8834L12.815 47.7812Z" fill="#D2418D"/>
<path d="M36.7 71.6895L60.5979 71.6895L60.5979 47.7916L36.7 47.7916L36.7 71.6895Z" fill="#D2418D"/>
<path d="M12.8167 95.5723L36.7146 95.5723L36.7146 71.6744L12.8167 71.6744L12.8167 95.5723Z" fill="#D2418D"/>
<path d="M48.1505 35.3267L72.0483 35.3267L72.0483 11.4288L48.1505 11.4288L48.1505 35.3267Z" fill="#4DA0D4"/>
<path d="M48.1497 83.1167L72.0476 83.1167L72.0476 59.2188L48.1497 59.2188L48.1497 83.1167Z" fill="#4DA0D4"/>
<path d="M24.2679 59.2324L48.1658 59.2324L48.1658 35.3345L24.2679 35.3345L24.2679 59.2324Z" fill="#4DA0D4"/>
<path d="M24.2664 107L48.1643 107L48.1643 83.1016L24.2664 83.1016L24.2664 107Z" fill="#4DA0D4"/>
<path d="M42.4244 29.6226L66.3223 29.6226L66.3223 5.72467L42.4244 5.72467L42.4244 29.6226Z" fill="white"/>
<path d="M18.5413 53.5063L42.4392 53.5063L42.4392 29.6085L18.5413 29.6085L18.5413 53.5063Z" fill="white"/>
<path d="M42.4244 77.3911L66.3223 77.3911L66.3223 53.4932L42.4244 53.4932L42.4244 77.3911Z" fill="white"/>
<path d="M18.5413 101.297L42.4392 101.297L42.4392 77.399L18.5413 77.399L18.5413 101.297Z" fill="white"/>
<path d="M83.5208 94.6019H1.35107V12.4321H83.5208V94.6019ZM6.13508 89.7957H78.7368V17.2161H6.13508V89.7957Z" fill="white"/>
<path d="M84.8718 95.9524H0V11.0806H84.8718V95.9524ZM2.70208 93.2503H82.1697V13.7826H2.70208V93.2503ZM80.0878 91.1462H4.78401V15.8424H80.0878V91.1462ZM7.48608 88.4663H77.3857V18.5667H7.48608V88.4663Z" fill="white"/>
</svg>
