<svg width="68" height="96" viewBox="0 0 68 96" fill="none" xmlns="http://www.w3.org/2000/svg">
<path d="M61.1082 82.1756C61.1082 85.4756 61.2082 88.6756 60.2082 91.8756C59.7082 93.4756 58.9082 94.4756 57.1082 94.2756C52.4082 93.8756 47.7082 94.9756 43.0082 95.0756C40.3082 95.0756 38.2082 94.4756 36.3082 92.2756C33.4082 88.9756 31.1082 88.8756 28.1082 92.0756C26.3082 93.9756 24.6082 94.3756 22.4082 94.1756C17.3082 93.7756 12.3082 94.6756 7.2082 93.8756C4.3082 93.4756 3.0082 92.1756 2.8082 89.3756C2.1082 79.3756 4.0082 70.3756 11.7082 63.0756C16.9082 58.1756 21.9082 53.1756 29.7082 52.8756C34.4082 52.6756 39.2082 52.5756 43.8082 53.5756C51.9082 55.3756 55.8082 61.7756 59.0082 68.6756C60.9082 73.0756 61.1082 77.6756 61.1082 82.1756ZM12.8082 70.2756C14.3082 76.6756 19.3082 80.5756 25.2082 80.1756C28.0082 79.9756 29.0082 78.3756 27.7082 75.8756C25.1082 70.6756 19.6082 68.4756 12.8082 70.2756ZM40.3082 80.0756C45.2082 80.0756 49.1082 78.4756 50.8082 75.7756C51.8082 74.2756 51.8082 72.6756 51.0082 71.1756C50.2082 69.6756 48.8082 69.3756 47.3082 69.5756C43.4082 70.0756 40.3082 72.1756 37.7082 74.8756C36.8082 75.8756 36.0082 77.2756 37.0082 78.7756C37.7082 79.9756 39.0082 80.0756 40.3082 80.0756Z" fill="#fff"/>
<path d="M67.3087 41.7752C67.6087 44.4752 65.8087 48.8752 66.1087 53.4752C66.2087 54.7752 65.9087 55.4752 64.3087 55.3752C63.2087 55.3752 63.1087 56.3752 63.0087 57.3752C62.5087 60.0752 60.8087 61.0752 58.6087 59.6752C56.2087 58.0752 54.0087 56.1752 51.8087 54.2752C50.4087 53.1752 50.7087 51.8752 51.6087 50.4752C54.5087 46.0752 54.9087 40.9752 55.0087 35.8752C55.0087 34.7752 54.8087 33.5752 53.4087 33.4752C52.5087 33.3752 51.6087 34.0752 51.3087 34.8752C50.7087 36.1752 50.3087 37.5752 50.0087 38.9752C49.4087 41.2752 49.2087 43.6752 48.4087 45.8752C47.9087 47.1752 48.3087 49.6752 45.8087 49.2752C43.9087 48.9752 41.8087 48.2752 41.4087 45.8752C41.0087 42.8752 40.1087 39.7752 40.4087 36.7752C41.5087 25.4752 44.9087 14.8752 52.0087 5.67523C52.6087 4.97523 53.0087 3.77522 53.7087 3.57522C55.7087 3.07522 56.7087 0.0752046 59.2087 1.2752C61.7087 2.3752 63.9087 3.77522 64.2087 7.07522C64.7087 12.4752 65.7087 17.8752 66.3087 23.2752C66.7087 28.7752 66.9087 34.3752 67.3087 41.7752Z" fill="#fff"/>
<path d="M18.9083 51.3755C17.0083 47.7755 15.6083 44.4754 14.7083 40.8755C14.4083 39.7755 14.2083 38.6754 13.8083 37.7754C13.2083 36.4754 12.3083 35.1754 10.5083 35.8755C9.00828 36.4754 9.00828 37.7755 9.30828 39.0755C10.5083 44.3755 11.7083 49.6755 14.6083 54.4755C13.8083 55.0755 13.0083 55.4755 12.4083 56.0755C10.9083 57.4755 9.20828 58.7755 7.10828 57.3755C5.00828 56.0755 2.50828 55.1754 2.70828 51.8755C2.90828 47.6754 0.90828 43.7755 0.40828 39.5755C-1.09172 26.4755 1.60828 14.2755 7.40828 2.67547C8.80828 -0.124531 11.6083 -0.124538 14.0083 0.0754625C16.2083 0.275463 17.7083 2.27546 18.2083 4.47546C19.2083 9.07546 20.1083 13.6754 21.0083 18.2754C21.0083 18.4754 21.2083 18.6754 21.2083 18.7754C20.0083 20.8754 18.6083 22.9755 20.6083 25.1755C22.1083 26.8755 22.9083 28.9755 23.7083 30.9755C24.5083 33.1755 25.5083 35.3755 25.9083 37.6755C26.5083 41.6755 26.4083 45.6754 22.3083 48.2754C21.0083 49.1754 20.2083 50.1754 18.9083 51.3755ZM18.3083 14.6755C19.1083 11.9755 19.1083 11.9754 17.6083 9.77544C17.0083 11.7754 16.7083 13.2755 18.3083 14.6755Z" fill="#fff"/>
</svg>
