<?xml version="1.0" encoding="UTF-8"?>
<svg xmlns="http://www.w3.org/2000/svg" viewBox="0 0 293 313" width="293" height="313"><path d="M 283,280 284,279 285,280 285,281 284,282 284,284 283,285 282,288 278,293 278,294 269,302 268,302 263,305 261,305 260,306 257,306 256,307 37,307 36,306 33,306 32,305 30,305 29,304 28,304 26,302 23,301 14,292 14,291 12,289 12,288 9,283 9,281 10,280 11,280 13,282 14,282 17,284 19,284 22,286 24,286 27,288 30,288 31,289 33,289 34,290 37,290 38,291 41,291 42,292 46,292 47,293 51,293 52,294 56,294 57,295 61,295 62,296 68,296 69,297 75,297 76,298 83,298 84,299 94,299 95,300 106,300 107,301 131,301 132,302 162,302 163,301 187,301 188,300 200,300 201,299 211,299 212,298 218,298 219,297 225,297 226,296 232,296 233,295 237,295 238,294 242,294 243,293 247,293 248,292 252,292 253,291 256,291 257,290 259,290 260,289 262,289 263,288 266,288 267,287 269,287 272,285 274,285 275,284 276,284 277,283 278,283 279,282 282,281 Z M 7,264 8,263 9,264 10,264 12,266 13,266 14,267 15,267 20,270 22,270 25,272 28,272 29,273 31,273 32,274 34,274 35,275 39,275 40,276 42,276 43,277 47,277 48,278 52,278 53,279 57,279 58,280 64,280 65,281 70,281 71,282 78,282 79,283 88,283 89,284 97,284 98,285 113,285 114,286 180,286 181,285 196,285 197,284 206,284 207,283 215,283 216,282 223,282 224,281 229,281 230,280 236,280 237,279 241,279 242,278 245,278 246,277 250,277 251,276 254,276 255,275 258,275 259,274 261,274 262,273 265,273 266,272 268,272 271,270 273,270 274,269 275,269 276,268 277,268 278,267 279,267 280,266 283,265 285,263 286,264 286,272 280,278 279,278 278,279 277,279 276,280 275,280 270,283 268,283 267,284 265,284 264,285 262,285 261,286 259,286 258,287 255,287 254,288 251,288 250,289 246,289 245,290 242,290 241,291 237,291 236,292 231,292 230,293 224,293 223,294 216,294 215,295 208,295 207,296 198,296 197,297 183,297 182,298 157,298 156,299 139,299 138,298 112,298 111,297 97,297 96,296 87,296 86,295 79,295 78,294 71,294 70,293 64,293 63,292 59,292 58,291 53,291 52,290 48,290 47,289 43,289 42,288 40,288 39,287 36,287 35,286 32,286 31,285 29,285 26,283 24,283 23,282 21,282 20,281 19,281 18,280 17,280 16,279 13,278 7,272 7,265 Z M 183,258 184,257 186,257 188,260 188,262 189,263 189,265 190,266 190,267 193,272 193,273 191,275 184,275 182,273 182,270 181,269 181,265 180,264 180,260 182,258 Z M 126,257 127,256 129,256 130,257 133,258 135,260 135,266 132,268 130,268 129,269 128,269 125,271 123,271 122,272 114,272 113,271 116,268 117,268 125,260 125,259 126,258 Z M 102,257 103,256 108,256 109,257 110,257 112,259 112,260 113,261 111,263 110,263 109,264 101,264 99,262 99,259 101,257 Z M 203,254 204,253 205,254 209,254 211,257 211,262 208,265 205,265 204,264 203,264 201,262 201,258 202,257 202,255 Z M 35,254 36,253 37,253 39,255 40,255 43,258 42,259 39,259 38,260 29,260 28,259 28,258 30,256 31,256 34,254 Z M 249,251 250,250 251,250 252,251 252,252 255,255 256,255 258,257 259,257 262,259 261,260 252,260 251,259 249,259 246,257 241,257 240,256 240,253 241,252 244,252 245,251 248,251 Z M 127,250 128,249 129,250 129,252 128,253 127,252 127,251 Z M 102,249 103,248 107,248 109,250 109,251 110,252 110,254 109,255 108,254 103,254 102,255 101,255 100,254 100,251 101,250 Z M 42,248 43,247 45,247 50,251 54,251 55,252 55,256 54,257 52,257 51,258 45,258 42,255 42,254 41,254 39,252 39,251 41,249 Z M 276,246 277,245 278,246 278,254 277,255 276,254 276,247 Z M 250,244 251,243 252,243 253,244 253,246 252,247 250,247 249,248 247,248 246,249 232,249 230,247 232,245 235,245 236,246 242,246 243,245 247,245 248,244 249,244 Z M 188,242 189,241 190,242 191,242 192,243 194,243 197,245 200,245 201,246 203,246 204,247 207,247 208,248 215,248 216,249 227,249 228,250 228,251 226,253 216,253 215,252 209,252 208,251 203,251 202,250 200,250 199,249 197,249 192,246 190,246 188,244 188,243 Z M 264,241 265,240 266,240 267,241 267,243 264,246 263,246 260,248 258,248 257,249 255,246 257,244 263,242 Z M 171,229 172,228 176,232 176,233 177,234 177,236 179,239 179,242 180,243 180,246 181,247 181,250 182,251 182,254 183,255 182,256 181,256 180,255 180,253 179,252 179,250 178,249 178,247 177,246 177,244 176,243 176,241 174,238 174,236 173,235 173,234 172,233 172,231 171,230 Z M 191,228 192,227 200,227 201,228 202,228 204,230 204,244 203,245 202,245 201,244 199,244 198,243 196,243 195,242 194,242 193,241 190,240 188,238 188,230 190,228 Z M 138,226 139,225 140,226 140,230 139,231 139,233 138,234 138,237 137,238 137,241 136,242 136,245 135,246 135,254 133,256 130,254 130,247 131,246 131,241 132,240 132,236 133,235 133,233 134,232 135,229 137,227 Z M 110,224 111,223 113,223 115,225 116,225 119,228 120,228 125,233 125,253 124,254 124,256 123,257 123,258 115,266 114,266 113,265 115,263 115,258 114,257 114,256 113,255 113,253 112,252 112,247 111,246 111,242 110,241 110,225 Z M 104,223 105,222 106,222 107,223 107,236 108,237 108,245 107,246 106,246 105,245 104,246 102,246 101,247 100,247 98,244 98,242 99,241 102,243 102,224 103,223 Z M 57,223 58,222 59,223 59,225 58,226 58,229 57,230 57,232 56,233 56,235 55,236 55,241 54,242 54,247 53,248 51,248 50,247 50,240 51,239 51,236 52,235 52,231 53,230 53,229 54,228 54,226 56,223 Z M 181,220 182,219 183,219 184,220 184,226 185,227 185,248 186,249 186,254 185,255 183,252 183,249 182,248 182,245 181,244 181,241 180,240 180,238 179,237 179,235 178,234 178,233 177,232 176,229 174,227 173,227 169,223 169,221 170,220 171,221 172,221 177,224 178,224 181,221 Z M 139,218 140,217 141,218 141,221 138,224 137,224 133,229 133,230 132,231 132,233 131,234 131,237 130,238 130,244 129,245 128,244 128,242 127,241 127,225 128,224 130,224 131,223 132,223 135,220 136,220 138,218 Z M 168,214 169,213 171,215 172,215 175,217 177,217 179,215 179,214 180,213 181,213 182,214 181,217 179,219 179,220 178,221 176,221 175,220 174,220 173,219 170,218 168,216 168,215 Z M 49,213 50,212 52,212 54,214 54,215 56,218 56,221 53,224 53,225 52,226 52,228 51,229 51,231 50,232 50,236 49,237 49,242 48,243 48,245 47,246 44,243 44,216 46,214 47,214 48,213 Z M 137,212 138,211 139,211 140,212 140,214 137,217 134,218 131,221 130,221 129,222 127,219 128,218 129,218 130,217 133,216 136,213 Z M 246,209 247,208 248,209 248,213 249,214 249,220 250,221 250,226 251,227 251,232 252,233 252,241 251,242 249,242 248,243 245,243 244,244 232,244 230,242 230,224 231,223 233,225 233,226 236,229 236,230 237,230 239,228 239,227 240,226 241,223 243,221 243,220 246,215 246,210 Z M 55,208 56,207 57,208 59,208 60,209 60,211 61,212 61,218 59,220 58,219 58,218 57,217 57,216 54,211 54,209 Z M 229,199 229,203 230,204 230,206 229,207 229,209 228,210 228,211 231,214 231,215 235,219 235,220 236,221 237,221 238,218 240,216 240,215 242,212 242,208 241,207 241,206 240,205 239,205 239,206 241,209 241,211 239,213 238,216 236,218 232,214 232,213 230,211 230,200 Z M 128,199 129,198 132,201 132,202 133,203 133,204 136,209 136,210 132,214 131,214 130,215 129,215 127,213 127,212 126,211 126,204 127,203 127,201 128,200 Z M 171,198 172,197 174,199 175,199 179,205 179,211 178,212 178,213 176,215 173,214 169,210 169,203 170,202 170,200 171,199 Z M 44,194 45,193 49,197 49,198 51,200 51,201 53,204 53,207 50,210 49,210 46,212 45,212 43,209 43,204 42,203 42,202 43,201 43,197 44,196 44,195 Z M 77,191 78,190 80,192 80,194 82,197 82,199 83,200 83,202 84,203 84,206 86,209 86,210 85,211 85,214 84,215 84,222 85,223 85,225 87,228 87,230 85,232 83,232 82,233 80,233 79,234 74,234 72,232 72,229 73,228 73,223 74,222 74,218 75,217 75,201 75,203 74,204 74,211 73,212 73,217 72,218 72,222 71,223 71,224 70,225 64,225 62,223 63,222 63,219 64,218 64,212 63,211 63,201 64,200 64,197 66,195 70,199 74,195 74,194 76,192 Z M 244,184 245,183 246,184 246,186 247,187 247,190 248,191 248,194 249,195 249,198 250,199 250,201 251,202 251,205 252,206 252,210 253,211 253,214 254,215 254,218 255,219 255,223 256,224 256,227 257,228 257,232 258,233 258,236 259,237 259,240 260,241 257,243 256,243 254,240 254,235 253,234 253,229 252,228 252,223 251,222 251,218 250,217 250,213 249,212 249,207 248,206 248,203 247,202 247,199 246,200 245,199 245,192 244,191 244,185 Z M 154,184 155,183 157,185 157,187 158,188 158,190 159,191 159,193 160,194 160,196 161,197 161,199 162,200 162,202 163,203 163,205 164,206 164,209 165,210 165,218 166,219 166,224 167,225 167,228 168,229 168,230 166,232 164,232 163,233 162,233 157,236 155,236 154,237 145,237 142,235 142,231 143,230 143,226 144,225 144,215 143,214 143,202 144,201 144,197 145,196 145,192 146,191 148,193 150,191 150,190 151,189 151,188 153,186 153,185 Z M 37,184 36,185 36,187 34,190 34,192 33,193 33,195 31,198 31,200 28,205 28,207 27,208 27,210 26,211 26,212 27,212 27,211 28,210 28,209 31,204 31,202 33,199 33,197 34,196 34,195 35,194 35,192 36,191 36,188 37,187 37,185 Z M 223,177 224,176 225,177 225,193 224,194 224,210 223,211 223,213 224,214 224,215 228,219 228,220 229,221 229,230 228,231 228,246 227,247 224,247 223,248 222,248 221,247 211,247 210,246 207,246 206,245 207,244 208,244 211,241 212,241 216,237 216,236 218,234 218,233 221,228 221,226 222,225 222,217 221,216 221,214 220,213 220,210 219,209 219,207 217,204 217,202 216,201 216,200 217,199 217,197 218,196 218,194 219,193 219,191 220,190 220,187 221,186 221,184 222,183 222,181 223,180 223,178 Z M 169,177 170,176 172,176 175,178 175,180 176,181 176,194 177,195 177,196 176,197 174,195 171,194 170,195 170,196 168,198 168,200 166,202 164,199 164,197 163,196 163,194 162,193 162,191 161,190 161,188 160,187 160,185 159,184 159,182 158,181 158,179 157,178 158,177 168,177 Z M 120,176 121,175 124,175 125,176 125,186 126,187 126,197 125,198 125,200 124,201 124,204 123,205 123,210 124,211 124,214 125,215 124,216 124,226 123,227 122,226 121,226 117,222 116,222 113,220 111,220 110,219 105,219 104,220 103,220 102,219 102,215 103,214 103,210 104,209 104,206 105,205 105,201 106,200 106,197 107,196 107,194 108,193 108,191 109,190 109,188 110,187 110,185 111,184 111,183 113,181 114,181 115,180 115,179 118,176 119,176 Z M 224,175 225,174 226,175 226,176 225,177 224,176 Z M 176,175 177,174 179,176 178,177 177,177 176,176 Z M 140,175 141,174 142,175 146,175 147,176 152,176 155,178 151,183 150,186 148,188 147,188 145,186 145,185 142,182 142,181 140,179 140,176 Z M 112,175 113,174 114,174 115,175 113,177 113,178 112,179 111,179 110,178 111,177 111,176 Z M 128,174 129,173 133,173 134,174 136,174 137,175 137,177 138,178 138,180 139,181 139,182 143,187 143,191 142,192 142,196 141,197 141,202 140,203 140,208 139,209 138,208 138,207 137,206 137,205 136,204 136,203 135,202 134,199 129,194 129,191 128,190 128,175 Z M 115,173 116,172 117,172 118,173 116,175 115,175 114,174 Z M 182,171 183,170 185,170 186,171 186,173 187,174 187,176 188,177 188,179 191,184 191,186 193,189 193,191 196,196 196,198 197,199 197,201 199,204 199,206 200,207 200,209 201,210 201,213 202,214 202,217 203,218 203,222 204,223 204,224 203,225 201,225 200,224 193,224 192,225 190,225 189,226 188,226 187,225 187,221 186,220 186,216 185,215 185,214 184,213 184,211 182,208 182,204 180,201 180,196 179,195 179,184 178,183 179,182 182,183 182,179 181,178 181,172 Z M 125,169 126,168 141,168 142,169 146,169 147,170 154,170 155,171 162,171 163,170 168,170 171,168 173,168 174,169 175,169 177,171 174,173 171,173 170,174 164,174 163,175 160,175 159,174 151,174 150,173 146,173 145,172 141,172 140,171 124,171 123,172 121,172 120,173 118,173 117,172 120,170 122,170 123,169 124,169 Z M 193,168 194,167 196,169 196,170 198,172 198,173 199,174 199,175 200,176 200,177 201,178 201,179 202,180 203,183 205,185 205,186 206,187 206,188 207,189 207,190 208,191 208,192 209,193 209,194 210,195 210,196 211,197 211,198 212,199 212,200 213,201 213,202 216,207 216,209 217,210 217,212 218,213 218,216 219,217 219,225 218,226 218,228 217,229 217,230 215,232 215,233 208,240 207,239 207,227 206,226 206,220 205,219 205,215 204,214 204,212 203,211 203,208 202,207 202,205 201,204 201,202 199,199 199,197 197,194 197,192 195,189 195,187 193,184 193,182 190,177 190,175 189,174 189,172 188,171 190,169 191,169 192,168 Z M 101,167 102,166 103,167 103,168 102,169 101,168 Z M 182,164 183,163 184,163 185,164 185,166 183,168 181,168 180,169 178,169 175,167 176,166 177,166 178,165 180,165 181,164 Z M 201,161 202,160 203,160 204,161 203,162 203,164 202,165 202,167 200,170 197,165 197,163 200,161 Z M 135,160 136,159 137,160 137,164 135,166 134,166 133,165 133,164 134,163 134,162 135,161 Z M 178,158 179,157 180,158 180,160 179,161 178,160 178,159 Z M 157,158 158,157 159,158 159,159 161,161 161,162 164,165 164,166 165,167 164,168 158,168 157,167 157,159 Z M 93,156 94,155 96,155 99,157 99,158 101,161 101,163 102,164 102,166 101,167 98,164 98,163 95,160 95,159 93,157 Z M 58,156 59,155 60,156 60,162 59,163 59,173 58,174 58,184 60,186 60,187 62,189 62,190 63,191 63,192 62,193 62,196 61,197 61,200 60,201 60,205 59,206 58,206 55,204 55,202 54,201 53,198 47,191 47,182 48,181 48,179 50,177 51,177 53,174 53,172 54,171 54,168 55,167 55,165 56,164 56,162 57,161 57,158 58,157 Z M 185,155 186,154 191,154 193,156 193,157 194,158 194,160 195,161 195,163 194,164 192,164 192,165 191,166 190,165 190,164 190,166 189,167 188,167 187,166 188,165 187,164 187,162 186,161 184,161 183,160 183,158 184,157 184,156 Z M 198,154 199,153 200,153 201,154 201,157 200,158 199,158 198,159 197,159 196,158 196,156 197,155 Z M 79,154 80,153 82,156 82,158 84,161 84,163 85,164 85,166 87,169 87,171 88,172 88,174 91,177 92,177 97,181 97,183 96,184 96,185 95,186 95,187 94,188 94,189 93,190 93,191 92,192 92,193 89,198 89,200 87,203 86,202 86,200 84,197 84,195 83,194 83,192 81,189 81,185 83,183 83,180 82,179 82,174 81,173 81,165 80,164 80,157 79,156 79,155 Z M 122,153 123,152 124,153 124,159 123,160 123,161 122,162 121,165 119,167 118,166 118,164 120,161 120,159 121,158 121,156 122,155 122,154 Z M 21,152 22,151 23,151 25,153 25,155 24,156 21,156 20,155 20,153 Z M 67,151 68,150 71,150 72,151 72,157 73,158 73,168 74,169 74,177 75,178 75,181 72,184 72,185 70,187 66,183 66,182 65,181 65,172 66,171 66,157 67,156 67,152 Z M 185,150 186,149 189,149 191,151 190,152 186,152 185,151 Z M 133,150 134,149 135,150 135,155 133,158 133,160 132,161 132,162 128,166 127,166 126,165 126,160 127,159 127,158 130,155 130,154 132,152 132,151 Z M 123,150 124,149 125,150 125,152 124,153 123,152 123,151 Z M 63,149 64,148 66,150 65,151 65,164 64,165 64,179 63,180 63,181 64,182 64,183 67,186 67,187 70,190 70,189 74,185 74,184 76,182 76,173 75,172 75,164 74,163 74,154 73,153 73,150 75,148 76,149 76,153 77,154 77,161 78,162 78,169 79,170 79,178 80,179 80,182 78,184 78,185 75,188 75,189 72,192 72,193 70,195 67,192 67,191 65,189 65,188 62,185 62,184 60,182 60,179 61,178 61,169 62,168 62,156 63,155 63,150 Z M 158,148 159,147 161,149 162,149 166,153 167,153 169,155 172,156 176,160 176,163 175,164 174,164 173,165 171,165 170,166 169,166 167,164 166,164 165,163 165,162 163,160 163,159 161,157 161,156 159,153 159,151 158,150 158,149 Z M 134,148 135,147 136,148 136,149 135,150 134,149 Z M 124,147 125,146 126,147 126,148 125,149 124,148 Z M 81,147 82,146 85,146 86,147 86,148 87,149 87,151 88,152 89,155 91,157 92,160 94,162 94,163 99,168 99,169 102,172 102,173 99,178 98,178 96,176 95,176 93,174 92,174 91,173 91,172 89,169 89,167 88,166 88,164 86,161 86,159 84,156 84,154 83,153 83,152 82,151 82,149 81,148 Z M 67,147 68,146 70,146 71,147 70,148 68,148 Z M 54,146 55,145 58,145 59,146 59,147 58,148 58,150 57,151 57,153 56,154 56,156 55,157 55,159 54,160 54,162 53,163 53,165 52,166 52,168 51,169 51,172 45,178 44,177 44,176 45,175 45,172 46,171 46,168 47,167 47,165 48,164 48,162 49,161 49,159 50,158 50,156 51,155 51,153 52,152 52,150 54,147 Z M 229,144 230,143 231,143 233,145 233,158 234,159 234,166 235,166 235,151 234,150 234,145 235,144 237,146 237,150 238,151 238,158 239,159 239,168 240,169 240,176 241,177 241,186 242,187 242,195 243,196 243,205 244,206 244,213 243,214 243,215 242,216 242,217 241,218 241,219 240,220 239,223 237,225 236,225 234,223 234,222 231,219 231,218 226,213 226,201 227,200 227,182 228,181 228,157 229,156 229,145 Z M 139,144 140,143 141,144 142,144 144,146 149,146 151,144 152,144 153,143 155,145 155,146 154,147 154,164 155,165 155,167 154,168 150,168 149,167 144,167 143,166 140,166 139,165 139,145 Z M 125,144 126,143 127,144 127,145 126,146 125,145 Z M 64,144 65,143 68,146 67,147 66,147 64,145 Z M 182,143 183,142 184,143 184,144 185,145 185,147 184,148 183,147 183,146 182,145 182,144 Z M 20,143 21,142 22,142 23,143 23,145 22,146 21,146 20,145 20,144 Z M 239,142 240,141 242,141 244,144 244,147 246,150 246,153 247,154 247,157 248,158 248,160 249,161 249,163 250,164 250,167 251,168 251,170 252,171 252,175 253,176 253,178 254,179 254,182 255,183 255,186 256,187 256,189 257,190 257,193 258,194 258,197 259,198 259,200 260,201 260,204 261,205 261,207 262,208 262,211 263,212 263,215 264,216 264,218 265,219 265,221 266,222 266,225 267,226 267,228 268,229 268,231 269,232 269,233 264,238 263,238 262,239 261,238 261,235 260,234 260,230 259,229 259,226 258,225 258,222 257,221 257,217 256,216 256,213 255,212 255,209 254,208 254,205 253,204 253,201 252,200 252,197 251,196 251,193 250,192 250,190 249,189 249,185 248,184 248,182 247,181 247,178 246,177 246,174 245,173 245,170 244,169 244,166 243,165 243,162 242,161 242,158 241,157 241,153 240,152 240,148 239,147 239,143 Z M 216,142 217,141 218,141 219,142 219,144 218,145 218,147 217,148 217,151 216,152 216,154 215,155 215,160 215,159 217,156 217,153 218,152 218,151 219,150 219,148 220,147 220,144 222,142 226,142 227,143 227,149 226,150 226,156 225,157 225,161 224,162 224,166 223,167 223,170 222,171 222,174 221,175 221,178 220,179 220,182 219,183 219,185 218,186 218,188 217,189 217,191 214,196 213,195 213,194 212,193 212,192 211,191 211,190 210,189 209,186 207,184 207,183 206,182 205,179 203,177 203,176 202,175 202,173 203,172 203,170 204,169 204,167 205,166 205,164 206,163 206,161 207,160 207,158 208,157 209,154 211,152 211,151 212,150 213,147 215,145 215,143 Z M 231,140 232,139 233,140 234,140 235,141 234,142 232,142 231,141 Z M 180,140 181,139 182,139 183,140 183,142 182,143 181,142 181,141 Z M 155,140 156,139 157,139 159,141 160,141 166,147 167,147 170,150 171,150 175,154 174,155 171,154 169,152 168,152 165,149 164,149 161,146 160,146 155,141 Z M 141,140 142,139 145,142 146,142 147,141 148,141 149,140 150,140 151,141 151,142 149,144 144,144 141,141 Z M 96,140 97,139 100,140 102,142 102,143 103,144 103,148 102,149 102,150 99,153 98,153 97,152 94,152 93,151 94,150 94,149 93,149 92,150 90,148 91,147 92,147 94,145 94,143 93,143 91,145 90,144 90,143 92,141 95,140 Z M 67,140 68,139 70,139 71,140 71,143 70,144 68,144 66,142 66,141 Z M 63,140 64,139 65,140 65,142 64,143 63,142 63,141 Z M 132,139 133,138 134,138 137,141 129,153 128,152 128,149 129,148 129,145 131,142 131,140 Z M 101,138 102,137 103,137 106,140 106,142 105,143 104,142 104,141 102,139 Z M 20,138 21,137 22,138 22,139 21,140 19,140 18,139 19,138 Z M 239,137 240,136 241,136 242,137 242,138 241,139 240,139 239,138 Z M 235,137 236,136 237,137 237,138 236,139 235,138 Z M 229,137 230,136 231,136 232,137 232,139 231,140 230,139 230,138 Z M 219,137 220,136 222,136 223,137 227,137 228,138 228,139 227,140 222,140 221,139 219,139 218,138 Z M 146,137 147,136 148,136 149,137 149,138 147,140 145,140 143,138 144,137 145,137 Z M 55,137 56,136 57,136 58,137 60,137 61,138 61,143 60,144 59,143 57,143 55,141 55,138 Z M 267,136 268,135 269,135 270,136 270,142 269,143 269,149 267,152 266,151 266,138 267,137 Z M 162,136 163,135 166,135 167,136 167,137 168,138 168,139 169,140 169,141 172,146 172,147 171,148 167,144 166,144 162,140 161,140 159,138 161,136 Z M 150,136 151,135 152,135 156,139 155,140 153,140 151,138 151,137 Z M 89,136 90,135 92,135 93,136 93,137 91,139 90,139 88,141 88,142 87,143 84,143 83,144 78,144 77,143 77,139 78,138 80,138 81,137 86,137 87,136 88,136 Z M 67,136 68,135 70,135 71,136 72,136 75,139 75,144 72,147 71,147 70,146 73,143 73,140 71,138 70,138 69,137 68,138 67,138 65,140 64,139 64,138 66,136 Z M 15,136 16,135 19,135 20,136 19,137 16,137 Z M 277,135 278,134 279,134 280,135 280,136 279,137 279,240 278,241 279,242 277,245 276,244 276,180 277,179 277,136 Z M 44,135 45,134 46,134 47,135 47,137 46,138 46,140 44,143 44,145 43,146 43,148 41,151 41,153 38,158 38,160 36,162 36,164 35,165 35,166 33,168 33,169 32,170 32,171 31,172 31,173 30,174 29,177 27,179 27,180 23,185 22,188 20,190 19,193 17,195 17,196 14,201 14,203 12,206 12,208 11,209 11,212 10,213 10,217 9,218 9,229 8,230 4,224 4,222 3,221 3,218 2,217 2,211 3,210 3,206 4,205 4,203 5,202 5,201 6,200 6,199 7,198 7,197 8,196 8,195 9,194 10,191 12,189 12,188 15,185 15,184 17,182 17,181 19,179 19,178 22,175 22,174 24,172 24,171 27,168 27,167 29,165 30,162 32,160 32,159 33,158 34,155 36,153 36,151 37,150 37,149 40,144 40,142 41,141 41,139 42,138 42,136 43,135 Z M 19,135 20,134 21,134 22,135 21,136 20,136 Z M 235,134 236,133 237,133 238,134 236,136 235,136 234,135 Z M 221,133 222,132 228,132 229,133 230,133 231,134 230,135 222,135 221,134 Z M 134,133 135,132 136,132 140,136 140,138 139,139 137,137 136,137 134,135 134,134 Z M 231,132 232,131 234,131 236,133 235,134 234,134 233,135 232,135 231,134 231,133 Z M 146,132 147,131 148,131 149,132 148,133 147,133 Z M 15,132 16,131 18,131 19,132 19,133 18,134 15,134 14,133 Z M 277,131 278,130 281,130 282,131 281,132 278,132 Z M 153,131 154,130 163,130 164,131 164,132 162,134 161,134 158,136 157,136 153,132 Z M 129,131 130,130 131,130 132,131 132,132 131,133 131,135 129,138 129,140 127,143 126,142 126,139 127,138 127,135 128,134 128,132 Z M 218,130 219,129 220,129 221,130 218,133 218,134 214,139 214,140 213,141 213,142 212,143 212,144 211,145 211,146 210,147 209,150 203,156 202,155 202,152 204,150 204,149 207,146 207,145 211,140 212,137 215,134 215,133 217,131 Z M 185,130 186,129 188,132 188,137 189,138 189,144 190,145 190,147 189,148 188,148 186,146 186,144 185,143 185,141 182,136 183,135 183,133 184,132 184,131 Z M 167,130 168,129 173,129 175,131 175,134 177,137 177,139 180,144 180,146 181,147 181,148 182,149 182,151 183,152 183,153 181,156 180,156 176,152 176,150 175,149 175,147 174,146 174,144 173,143 173,142 172,141 172,140 171,139 171,138 170,137 169,134 167,132 167,131 Z M 124,130 125,129 126,129 127,130 127,133 126,134 126,137 125,138 125,141 124,142 124,144 123,145 123,147 122,148 122,150 121,151 121,153 119,156 119,158 118,159 118,161 115,166 115,168 114,169 114,170 111,173 110,173 110,174 108,176 108,180 109,181 109,182 108,183 108,185 107,186 107,188 106,189 106,191 105,192 105,194 104,195 104,197 103,198 103,201 102,202 102,206 101,207 101,210 100,211 100,218 99,219 99,236 98,237 91,230 91,229 89,227 89,225 88,224 88,222 87,221 87,215 88,214 88,211 89,210 89,207 91,204 91,202 92,201 92,199 94,196 94,194 95,193 95,192 96,191 96,190 97,189 98,186 100,184 100,183 101,182 101,181 102,180 102,179 103,178 103,177 104,176 104,175 105,174 106,171 108,169 108,167 110,165 110,164 111,163 111,162 112,161 112,160 115,155 115,153 116,152 116,151 118,148 118,146 120,143 120,141 121,140 121,138 122,137 122,135 123,134 123,131 Z M 206,129 207,128 212,128 213,129 213,131 212,132 212,133 210,135 209,138 207,140 206,139 206,130 Z M 197,129 198,128 202,128 203,129 203,146 197,152 194,153 193,152 193,148 192,147 192,140 191,139 191,135 190,134 190,130 191,129 196,129 Z M 57,129 58,128 59,128 60,129 60,131 61,132 61,134 60,135 59,134 58,134 57,133 57,130 Z M 232,128 233,127 234,127 235,128 235,129 234,130 233,129 Z M 221,128 222,127 223,127 224,128 223,129 222,129 Z M 117,128 118,127 120,127 121,128 121,131 120,132 120,134 119,135 119,137 118,138 118,140 116,143 116,145 114,148 114,150 113,151 113,152 112,153 112,154 111,155 111,156 110,157 110,158 109,159 109,160 106,165 104,163 104,162 103,161 103,159 102,158 102,156 101,155 103,153 103,152 104,151 104,150 105,149 106,146 108,144 108,143 111,140 111,139 113,137 113,136 114,135 114,134 116,132 116,130 117,129 Z M 80,128 81,127 82,128 89,128 90,129 90,132 87,134 84,134 83,135 80,135 79,134 79,132 80,131 80,129 Z M 53,128 54,127 55,128 55,132 53,134 53,137 52,138 52,145 51,146 51,147 50,148 50,150 48,153 48,155 47,156 47,159 45,162 45,164 44,165 44,168 43,169 43,172 42,173 42,176 41,177 41,184 42,184 43,183 44,184 44,189 41,194 41,197 40,198 40,208 41,209 41,211 42,212 42,213 41,214 41,227 40,228 32,228 31,227 29,227 28,226 27,226 25,224 25,218 24,217 24,216 22,214 20,214 19,213 14,213 13,212 14,211 14,208 16,205 16,203 17,202 17,201 18,200 19,197 21,195 21,194 22,193 23,190 25,188 25,187 27,185 28,182 30,180 31,177 33,175 33,174 34,173 34,172 35,171 35,170 36,169 36,168 37,167 37,166 38,165 38,164 41,159 41,157 43,154 43,152 44,151 44,149 45,148 45,146 46,145 46,143 47,142 47,139 48,138 48,135 49,134 49,132 52,129 Z M 29,128 30,127 33,130 33,135 32,136 31,136 30,135 30,130 29,129 Z M 17,128 18,127 19,128 19,129 18,130 15,130 14,129 15,128 16,128 Z M 3,128 3,191 4,188 6,186 6,185 7,184 7,130 6,130 4,128 Z M 263,127 264,126 265,126 266,127 266,130 265,131 265,137 264,138 264,149 265,150 265,154 264,155 262,153 262,151 261,150 261,135 262,134 262,130 263,129 263,128 Z M 223,127 224,126 225,126 226,127 225,128 224,128 Z M 102,127 103,126 104,127 104,133 102,135 101,134 101,132 102,131 102,128 Z M 62,127 63,126 68,130 70,130 71,129 74,128 76,126 77,126 78,127 78,134 77,135 74,135 71,133 68,133 67,134 65,134 64,135 63,135 62,134 62,128 Z M 21,127 22,126 23,126 24,127 25,127 27,129 27,131 28,132 28,137 27,138 25,138 24,137 24,135 25,134 26,134 26,133 25,133 24,132 24,129 23,129 23,131 22,132 21,132 20,131 20,129 21,128 Z M 225,126 226,125 227,125 228,126 227,127 226,127 Z M 183,126 184,125 185,125 186,126 183,129 183,130 182,131 182,133 181,134 181,136 180,137 178,135 178,131 182,127 Z M 279,125 280,124 282,124 283,125 282,126 280,126 Z M 34,125 35,124 36,124 39,127 39,128 40,129 40,133 39,134 37,134 36,135 35,134 35,132 34,131 34,129 32,126 33,125 Z M 137,124 138,123 139,123 140,124 145,124 147,126 146,127 145,127 145,128 147,130 147,131 146,132 144,132 144,133 145,134 144,135 141,134 137,130 138,129 138,125 Z M 273,123 274,122 275,123 275,130 272,132 268,132 267,131 268,130 268,128 270,126 271,127 271,128 272,128 272,125 273,124 Z M 108,123 109,122 110,122 111,123 112,123 115,126 115,128 114,129 113,132 111,134 111,135 109,137 109,138 108,139 107,139 104,136 104,135 105,134 105,130 106,129 105,128 105,126 104,125 107,123 Z M 279,122 280,121 281,121 282,122 281,123 280,123 Z M 208,122 209,121 210,121 211,122 211,123 212,124 212,125 211,126 208,126 207,125 207,124 208,123 Z M 37,122 38,121 40,121 43,123 43,124 45,127 45,131 44,132 43,132 42,131 40,125 37,123 Z M 275,121 276,120 278,122 278,124 277,125 276,124 276,123 275,123 274,122 Z M 121,120 122,119 128,119 129,120 130,120 132,122 133,122 136,125 136,127 135,128 132,128 131,127 128,127 127,126 124,126 123,125 121,125 119,123 119,121 120,120 Z M 104,120 105,119 107,119 108,120 108,121 107,122 105,122 104,121 Z M 57,120 58,119 59,120 59,122 60,123 60,125 59,126 58,126 57,125 57,121 Z M 81,119 82,118 87,121 90,121 91,122 91,123 89,126 81,126 80,125 80,123 81,122 81,120 Z M 27,119 28,118 29,118 30,119 27,122 26,122 25,123 23,123 22,124 19,124 18,125 10,125 7,123 7,122 8,121 9,121 10,122 15,122 16,121 20,121 21,120 25,120 26,119 Z M 158,118 159,117 160,117 161,118 160,119 159,119 Z M 61,117 62,116 63,117 64,117 69,122 73,118 74,118 76,116 78,116 80,118 79,119 79,122 77,124 76,124 74,126 73,126 70,128 68,128 66,126 65,126 63,124 62,124 61,123 61,120 60,119 60,118 Z M 155,116 156,115 157,115 159,117 158,118 157,118 156,117 Z M 149,116 150,115 153,118 154,118 156,120 159,121 160,122 160,124 161,125 161,127 160,128 152,128 146,122 146,121 147,120 148,117 Z M 140,116 141,115 143,115 144,116 144,117 145,118 146,121 145,122 142,122 141,121 139,121 138,120 138,118 139,117 Z M 120,116 121,115 124,115 125,116 122,118 120,118 117,121 117,122 116,123 114,121 114,120 118,116 119,116 Z M 277,113 278,112 280,114 280,118 279,119 278,119 277,118 277,114 Z M 138,113 139,112 140,112 141,113 139,115 138,115 137,114 Z M 66,113 67,112 71,112 72,113 73,113 74,114 74,115 71,118 70,118 69,119 68,118 67,118 64,115 64,114 65,113 Z M 144,112 145,111 146,111 148,113 148,114 146,116 145,115 145,114 144,113 Z M 131,111 132,110 134,112 134,114 135,115 135,118 134,119 133,119 132,118 131,118 130,117 130,116 131,115 131,112 Z M 97,111 98,110 102,114 103,117 101,120 99,118 99,115 98,114 98,118 99,119 99,122 100,123 100,129 99,130 99,133 98,134 98,135 97,136 96,136 95,135 95,133 93,131 93,122 94,121 94,118 95,117 95,116 96,115 96,113 97,112 Z M 246,110 247,109 248,110 248,112 249,113 249,115 250,116 250,118 252,121 251,122 250,122 248,124 250,124 251,125 250,126 250,127 251,127 253,125 261,125 262,126 262,128 261,129 261,131 260,132 260,140 259,141 259,143 260,144 260,149 259,150 252,143 252,142 248,138 248,137 246,135 246,134 244,131 244,126 243,125 244,124 244,122 246,119 246,111 Z M 167,110 168,109 169,110 169,112 170,113 170,116 171,117 171,119 172,120 172,123 173,124 173,127 172,128 165,128 163,125 163,120 164,119 164,116 167,111 Z M 162,110 163,109 164,110 164,111 163,112 163,114 161,116 158,113 159,112 160,112 161,111 Z M 149,110 150,109 155,114 154,115 153,115 149,111 Z M 128,109 129,108 130,109 130,110 129,111 129,114 128,115 127,115 125,113 125,112 127,110 Z M 224,108 225,107 226,107 233,112 234,111 234,110 237,107 238,108 238,116 237,117 237,120 236,121 236,123 235,124 234,123 230,123 228,121 228,117 227,116 227,113 226,112 225,109 Z M 163,108 164,107 165,108 165,109 164,110 163,109 Z M 90,107 91,106 92,106 94,108 94,112 93,113 93,115 92,116 92,118 91,119 88,119 87,118 86,118 85,117 84,117 83,116 82,116 81,115 78,114 76,112 74,112 71,110 67,110 66,111 63,112 61,114 60,114 57,117 56,117 55,116 55,114 54,113 54,111 55,110 56,111 60,111 65,108 72,108 73,109 75,109 76,110 78,110 81,112 84,112 85,111 88,110 90,108 Z M 240,106 241,105 243,108 243,110 244,111 244,117 241,122 241,129 239,131 238,131 237,130 237,127 238,126 238,122 239,121 239,117 240,116 240,107 Z M 99,105 100,104 101,105 111,105 112,106 111,107 111,108 109,110 109,111 106,116 105,115 105,114 103,112 103,111 101,109 101,108 99,106 Z M 47,105 48,104 50,104 51,105 51,109 52,110 52,116 53,117 53,120 54,121 54,122 52,124 52,125 48,129 47,128 47,126 46,125 46,124 42,120 43,119 44,119 44,112 45,111 45,109 46,108 46,106 Z M 243,104 244,103 245,103 246,104 246,105 247,106 247,109 246,110 245,109 245,108 244,107 244,106 243,105 Z M 229,103 230,102 232,102 234,104 234,107 233,108 231,108 229,106 229,104 Z M 202,103 203,102 209,102 210,103 212,103 213,104 215,104 216,105 218,105 219,106 220,106 222,108 222,109 225,114 225,116 226,117 226,122 225,123 223,123 218,118 218,120 221,123 222,123 223,124 222,125 220,125 219,126 216,126 214,124 214,122 213,121 213,120 212,119 212,117 211,116 211,114 212,113 212,110 213,109 212,108 211,109 211,110 210,111 210,112 207,117 207,119 204,124 203,124 200,121 200,120 198,120 198,121 199,121 203,125 203,126 202,127 193,127 192,126 193,125 193,123 194,122 194,121 195,120 196,120 196,115 198,112 198,110 199,109 199,108 200,107 201,104 Z M 169,103 170,102 172,104 173,104 174,105 177,106 179,108 179,110 180,111 180,114 181,115 181,117 182,118 182,120 183,121 183,123 178,128 176,126 176,125 175,124 175,122 174,121 174,118 173,117 173,114 172,113 172,111 171,110 171,108 170,107 170,105 169,104 Z M 276,102 277,101 280,104 280,105 281,106 281,107 280,108 280,110 279,111 278,110 278,109 277,108 277,107 276,106 276,103 Z M 128,100 129,99 130,99 131,100 131,102 122,111 116,111 115,112 117,112 118,113 116,115 115,115 113,117 113,118 112,119 111,119 110,118 110,114 111,113 111,112 113,110 113,109 116,106 116,105 120,101 125,101 126,100 127,100 Z M 43,100 44,99 49,99 50,100 49,101 48,101 46,103 44,103 43,104 42,103 42,101 Z M 157,99 158,98 161,98 164,101 164,102 166,104 166,107 165,108 164,107 163,107 160,110 159,110 158,111 155,111 151,107 151,106 150,105 155,100 156,100 Z M 95,99 96,98 100,98 101,99 105,99 106,98 110,98 113,101 113,102 112,103 104,103 103,102 100,102 99,101 96,100 Z M 170,98 171,97 172,98 174,98 175,99 177,99 178,100 179,100 181,103 180,104 177,104 176,103 175,103 173,101 172,101 170,99 Z M 135,98 136,97 138,97 139,98 139,99 141,101 141,102 143,105 143,107 140,110 139,110 138,111 137,111 134,108 134,107 133,106 133,102 135,99 Z M 114,97 115,96 116,96 117,97 117,100 116,101 115,100 115,99 114,98 Z M 66,97 67,96 68,97 68,99 69,100 70,100 71,101 69,103 68,103 67,102 67,101 66,100 66,98 Z M 240,96 241,95 246,99 244,101 243,101 242,102 241,102 240,103 237,104 235,102 236,101 236,100 239,97 Z M 156,96 157,95 159,95 160,96 159,97 158,97 157,98 156,98 155,99 154,99 150,103 149,103 148,102 153,97 154,97 155,96 Z M 122,96 123,95 129,95 130,96 129,97 128,97 127,98 125,98 124,99 121,99 120,98 121,97 Z M 42,95 43,94 50,94 51,95 50,96 48,96 47,97 42,97 41,96 Z M 210,94 211,93 212,94 213,94 214,95 217,96 219,98 220,98 221,99 222,99 224,101 225,101 227,103 227,104 226,105 225,104 221,104 220,103 218,103 217,102 215,102 214,101 211,101 210,100 207,100 206,99 204,99 203,98 205,96 206,96 209,94 Z M 68,94 69,93 70,93 71,94 71,95 72,96 72,100 71,101 70,100 70,97 69,96 68,97 67,96 67,95 Z M 78,93 79,92 80,92 81,93 81,95 83,98 84,98 85,99 89,99 90,100 90,103 91,104 91,105 88,108 87,108 85,110 81,110 80,109 78,109 75,107 72,107 70,105 73,102 73,101 74,100 74,96 73,95 74,94 77,93 Z M 61,93 62,92 65,94 65,97 64,98 64,100 65,101 65,102 68,105 66,107 64,107 61,109 59,109 58,110 57,110 54,107 54,106 53,105 53,101 55,99 57,99 58,98 59,98 60,97 60,95 61,94 Z M 109,92 110,91 113,94 111,96 106,96 105,97 100,97 99,96 94,96 92,94 93,93 94,93 95,94 100,94 101,93 105,93 106,92 108,92 Z M 160,91 161,90 162,90 163,91 163,92 165,94 165,95 166,96 164,98 162,96 162,95 159,93 156,93 155,94 154,94 152,96 151,96 148,99 147,99 145,96 145,94 146,93 148,95 149,94 150,94 152,92 154,92 155,91 159,91 Z M 87,91 88,90 90,92 90,94 87,97 86,97 83,94 83,92 84,91 85,92 85,93 86,94 87,94 88,93 87,92 Z M 139,90 140,89 141,90 141,91 142,92 142,94 143,95 143,97 144,98 144,99 145,100 146,103 150,108 150,109 149,110 146,107 146,106 144,104 144,103 141,98 141,96 140,95 140,93 139,92 139,91 Z M 85,90 86,89 87,89 88,90 87,91 86,91 Z M 55,90 56,89 59,92 59,94 56,97 55,96 54,96 53,95 53,92 54,91 55,92 55,94 56,94 57,93 56,92 55,92 54,91 Z M 222,88 223,87 224,88 225,88 230,91 230,93 233,95 233,96 232,97 232,99 231,100 229,100 228,99 228,98 222,92 222,89 Z M 147,88 148,87 149,88 150,88 151,89 151,90 148,93 146,91 146,89 Z M 280,87 281,86 283,88 283,91 281,93 279,91 279,89 280,88 Z M 169,86 170,85 174,85 177,88 177,89 179,92 179,94 180,95 180,97 179,98 178,98 177,97 175,97 174,96 172,96 166,92 166,91 164,89 166,87 167,87 168,86 Z M 131,85 132,84 135,85 137,87 137,89 135,91 134,91 131,93 124,93 123,92 125,90 125,89 128,86 129,86 130,85 Z M 290,84 289,85 289,86 290,87 290,91 289,92 289,94 287,97 287,103 288,104 287,105 287,111 286,112 286,115 287,116 287,118 289,121 289,131 286,136 286,257 281,262 280,262 278,264 277,264 272,267 270,267 269,268 267,268 266,269 264,269 263,270 261,270 260,271 258,271 257,272 254,272 253,273 250,273 249,274 246,274 245,275 240,275 239,276 235,276 234,277 229,277 228,278 221,278 220,279 214,279 213,280 205,280 204,281 192,281 191,282 176,282 175,283 119,283 118,282 104,282 103,281 90,281 89,280 81,280 80,279 74,279 73,278 66,278 65,277 60,277 59,276 55,276 54,275 49,275 48,274 45,274 44,273 41,273 40,272 37,272 36,271 34,271 33,270 30,270 29,269 27,269 26,268 24,268 21,266 19,266 18,265 15,264 13,262 12,262 8,258 8,257 7,256 7,239 3,235 3,277 4,278 4,282 6,285 6,287 7,288 8,291 12,296 12,297 17,302 18,302 21,305 22,305 23,306 24,306 29,309 31,309 32,310 35,310 36,311 258,311 259,310 262,310 263,309 265,309 266,308 267,308 268,307 271,306 273,304 274,304 283,295 283,294 285,292 285,291 288,286 288,284 289,283 289,280 290,279 290,272 291,271 291,85 Z M 236,84 237,83 238,84 238,87 237,88 237,89 238,89 241,86 241,85 242,84 245,87 245,88 243,90 242,90 237,95 237,96 235,98 234,97 234,96 235,95 235,92 233,92 232,91 232,89 236,85 Z M 208,84 209,83 210,83 211,84 211,85 214,88 215,88 222,95 221,96 220,96 219,95 218,95 216,93 215,93 214,92 213,92 208,89 206,89 205,88 205,87 207,85 Z M 56,84 57,83 58,84 58,85 57,86 56,85 Z M 82,83 83,82 84,82 85,83 85,84 82,89 81,89 80,90 78,90 77,91 76,91 75,92 73,92 72,93 71,92 71,91 70,90 70,89 71,88 74,88 75,87 78,86 80,84 81,84 Z M 60,83 61,82 63,82 65,84 65,85 70,89 70,90 68,92 65,92 60,88 60,84 Z M 226,82 228,84 231,84 232,83 232,82 227,82 Z M 135,82 136,81 140,81 142,83 142,84 144,87 143,88 142,88 140,86 139,86 136,83 Z M 48,82 49,81 50,81 51,82 51,83 54,88 50,93 45,93 43,91 43,90 44,89 44,87 46,85 46,84 47,83 Z M 239,81 240,80 241,81 241,82 240,83 239,82 Z M 165,81 166,80 168,80 171,82 170,83 169,83 168,84 167,84 166,85 165,85 160,88 158,88 157,87 159,85 160,85 163,82 164,82 Z M 160,80 161,79 162,79 163,80 156,87 157,87 158,88 157,89 154,89 153,90 152,89 152,88 159,81 Z M 131,79 132,78 134,78 135,79 134,80 133,80 133,81 132,82 130,82 129,83 128,83 127,82 127,81 128,80 129,80 130,79 Z M 98,79 99,78 101,78 103,80 104,80 108,84 108,85 109,86 110,89 107,91 104,91 103,92 92,92 91,91 91,90 89,88 90,87 90,86 92,84 92,83 97,79 Z M 80,79 81,78 82,78 83,79 80,82 79,82 77,84 76,84 75,85 73,85 72,86 70,86 66,82 67,81 68,81 69,82 72,82 73,81 74,81 76,79 77,79 78,80 79,79 Z M 2,77 2,80 3,81 3,116 4,115 6,115 7,114 7,108 6,107 6,100 5,99 5,92 4,91 4,85 3,84 3,77 Z M 155,76 156,75 157,76 157,79 150,86 149,86 147,83 147,77 148,76 149,77 153,77 154,76 Z M 130,75 131,74 134,74 135,75 134,76 133,76 132,77 131,77 130,78 129,78 128,79 127,79 126,80 125,80 124,79 127,76 128,76 129,75 Z M 51,74 52,73 55,74 60,79 58,81 57,81 55,79 55,82 54,83 52,80 52,77 51,76 51,75 Z M 196,73 197,72 207,72 208,73 208,74 207,75 199,75 198,74 197,74 Z M 211,72 212,71 213,71 214,72 214,75 213,76 213,78 214,79 214,82 215,83 215,84 214,85 212,83 212,82 211,81 211,79 210,78 210,76 211,75 211,73 Z M 98,72 99,71 101,73 101,76 100,77 98,77 97,78 94,79 90,83 90,84 88,86 87,85 87,84 88,83 89,80 96,73 97,73 Z M 68,72 69,71 72,71 73,72 74,72 75,73 72,76 71,75 71,74 70,74 69,73 Z M 66,72 67,71 69,73 68,74 68,75 67,76 66,75 66,74 65,73 Z M 271,71 272,70 274,72 275,72 276,73 281,73 282,72 283,72 285,70 286,71 286,72 284,74 283,74 280,77 278,77 277,76 276,76 271,72 Z M 218,70 219,69 220,69 221,70 218,73 218,81 219,82 219,84 220,85 220,87 219,88 218,88 217,87 217,84 215,81 215,71 216,70 217,70 Z M 223,68 224,67 225,67 226,68 225,69 224,69 Z M 150,68 149,69 148,69 148,70 149,70 150,71 153,71 155,69 154,69 153,68 151,68 Z M 123,68 124,67 125,68 125,69 126,70 126,71 127,72 127,73 126,74 124,72 124,71 123,70 123,69 Z M 60,68 61,67 62,68 62,74 61,75 60,74 60,69 Z M 225,67 226,66 227,66 228,67 227,68 226,68 Z M 127,67 128,66 129,67 129,68 130,69 130,70 129,71 127,69 127,68 Z M 231,66 232,65 233,65 236,68 234,70 233,70 232,71 233,72 231,74 231,77 232,78 231,79 229,79 230,80 231,80 232,79 232,75 233,74 234,75 235,75 236,74 237,75 237,78 236,79 236,81 235,82 235,83 233,85 233,86 231,88 228,88 227,87 224,86 220,82 220,79 219,78 219,75 221,73 223,75 225,75 226,74 227,74 227,73 228,72 228,71 227,70 230,67 Z M 264,65 265,64 266,65 266,67 267,68 267,70 268,71 268,72 273,77 274,77 277,79 275,81 272,80 266,74 266,73 265,72 265,69 264,68 264,66 Z M 137,65 138,64 139,65 139,66 140,66 141,67 141,68 142,69 143,72 145,74 145,75 143,77 141,75 141,74 140,73 140,77 139,78 138,78 137,77 137,66 Z M 235,63 236,62 237,62 239,64 239,65 241,68 241,70 242,71 242,79 241,80 240,79 240,76 239,75 239,71 238,70 238,68 234,64 Z M 62,63 63,62 64,63 66,63 67,64 67,65 66,66 66,67 68,69 66,71 65,71 64,70 64,68 63,67 63,65 62,64 Z M 275,62 276,61 281,61 283,63 283,64 284,65 284,67 283,68 283,69 281,71 276,71 274,69 274,68 273,67 273,65 274,64 274,63 Z M 114,62 115,61 119,65 119,66 118,67 117,67 116,66 116,65 114,63 Z M 68,60 69,59 70,59 71,60 71,61 72,61 73,62 73,63 75,63 79,59 80,60 80,61 79,62 78,65 76,67 76,72 75,73 73,70 70,70 69,69 70,68 71,68 70,67 69,68 68,68 67,67 67,66 68,65 68,62 67,61 Z M 247,59 248,58 252,58 253,59 255,59 256,60 256,62 252,66 251,66 246,69 244,69 243,68 243,67 242,66 242,65 241,64 240,61 241,60 243,60 244,59 246,59 Z M 117,58 118,57 121,60 121,61 122,62 122,63 121,64 118,61 118,60 117,59 Z M 62,58 63,57 64,57 65,58 64,59 63,59 Z M 236,57 237,56 240,58 239,59 237,59 234,61 232,61 227,64 225,64 224,65 223,65 220,67 218,67 217,68 214,68 213,69 208,69 207,70 203,70 202,69 204,67 206,67 207,66 208,66 210,64 211,64 216,61 218,61 219,60 221,60 222,59 224,59 225,58 230,58 231,57 235,57 Z M 73,57 74,56 77,56 79,58 78,59 77,59 76,58 75,58 74,59 72,59 71,58 72,57 Z M 126,56 127,55 128,56 128,57 129,58 129,60 128,61 127,60 127,59 126,58 126,57 Z M 121,56 122,55 124,57 124,58 125,59 125,60 126,61 126,62 125,63 123,61 123,60 122,59 122,58 121,57 Z M 220,55 221,54 223,54 224,55 224,56 223,57 221,57 220,58 219,58 218,59 216,59 215,60 214,60 213,59 216,56 219,55 Z M 153,55 154,54 155,54 156,55 156,56 153,58 154,58 155,59 154,60 155,61 158,61 160,59 161,60 161,65 160,66 160,68 157,71 157,72 156,73 155,73 153,75 150,75 149,74 148,74 144,70 144,69 142,66 142,62 141,61 141,58 142,57 144,57 145,58 144,59 143,59 143,60 144,61 147,61 148,60 149,57 152,55 Z M 182,54 183,53 184,54 184,55 185,56 185,57 186,58 186,59 187,60 187,61 188,62 188,63 191,68 191,70 192,71 192,72 193,73 193,75 194,76 194,79 195,80 195,85 196,86 196,98 196,97 198,95 198,83 197,82 197,79 196,78 197,77 202,77 203,78 207,78 208,79 208,80 203,85 203,86 202,87 202,90 204,90 207,92 206,93 203,94 201,96 200,96 199,97 199,98 196,103 196,106 197,107 196,108 196,110 193,115 193,118 191,121 191,124 189,126 187,123 187,119 188,118 188,116 189,115 189,113 190,112 190,106 191,105 191,101 192,100 192,84 191,83 191,79 190,78 190,74 188,71 188,69 187,68 187,66 185,63 185,61 184,60 184,59 183,58 182,55 Z M 143,54 144,53 147,53 150,56 149,57 148,57 147,56 143,56 142,55 Z M 137,54 138,53 140,53 141,54 141,55 139,57 139,58 138,59 137,58 137,55 Z M 232,53 233,52 235,54 234,55 233,55 232,54 Z M 160,53 161,52 163,52 165,54 165,56 166,57 166,61 167,62 167,65 168,66 168,70 171,75 171,78 170,79 169,78 166,78 165,77 165,75 166,74 166,70 165,71 165,74 162,77 160,77 159,76 159,72 162,67 162,65 163,64 164,64 162,58 158,54 159,53 Z M 226,51 227,50 228,50 230,52 230,55 229,56 227,56 225,54 225,52 Z M 181,51 182,50 183,51 183,53 182,54 181,53 181,52 Z M 146,51 147,50 148,50 149,51 148,52 147,52 Z M 141,51 142,50 144,50 145,51 144,52 142,52 Z M 138,50 139,49 141,49 142,50 141,51 139,51 Z M 162,49 163,48 164,48 165,49 163,51 160,51 159,50 160,49 161,49 Z M 176,48 177,47 178,48 178,51 179,52 179,54 180,55 180,57 183,62 183,64 185,67 185,69 186,70 186,72 187,73 187,75 188,76 188,79 189,80 189,84 190,85 190,98 189,99 189,104 188,105 188,110 187,111 187,115 186,116 186,118 185,119 184,118 184,116 183,115 183,112 182,111 182,108 183,107 184,107 184,105 183,104 183,97 182,96 182,93 181,92 181,90 180,89 179,86 174,81 174,80 173,79 173,74 172,73 172,71 170,68 170,66 171,65 171,63 172,62 172,59 173,58 173,56 174,55 174,52 175,51 175,49 Z M 180,47 181,46 182,47 182,50 181,51 180,50 180,48 Z M 81,47 82,46 84,48 84,49 86,51 86,52 85,53 83,53 81,51 81,48 Z M 57,47 58,46 59,46 60,47 59,48 59,49 57,51 56,50 56,49 57,48 Z M 63,46 64,45 65,45 66,46 65,47 65,49 64,50 62,50 61,49 63,47 Z M 85,45 86,44 87,44 89,46 90,46 91,47 91,49 89,51 88,51 84,47 84,46 Z M 277,44 278,43 280,45 280,52 279,53 278,56 272,62 272,63 271,64 271,68 272,69 272,70 271,71 269,69 269,67 268,66 268,62 269,61 269,59 270,58 271,55 276,50 276,49 277,48 277,45 Z M 142,44 143,43 144,44 144,45 145,46 143,48 141,48 140,47 140,46 141,45 Z M 74,43 75,42 77,42 80,44 80,45 79,46 79,51 80,52 80,53 82,55 85,55 86,56 85,57 85,62 81,68 81,71 82,70 82,68 84,66 84,65 86,63 86,62 87,61 88,62 88,68 80,76 78,73 78,68 80,66 80,65 81,64 81,62 82,61 82,60 81,59 81,57 78,54 75,54 74,55 72,55 69,57 67,57 65,55 61,55 60,54 60,52 61,51 63,51 64,52 66,52 68,54 69,54 71,52 71,49 72,48 72,46 73,45 73,44 Z M 55,43 56,42 58,44 58,45 55,48 52,45 54,43 Z M 69,42 70,41 72,41 73,42 71,45 71,47 70,48 70,50 69,51 68,51 67,50 67,45 68,44 68,43 Z M 179,41 180,40 181,41 181,46 180,47 179,46 179,42 Z M 147,41 148,40 155,40 156,41 159,42 161,44 162,47 161,48 157,48 156,47 156,46 155,46 155,47 153,49 150,50 147,47 147,46 145,43 146,42 Z M 8,39 9,38 10,39 11,42 13,44 13,45 15,48 15,51 16,52 16,59 17,60 17,69 18,70 18,79 19,80 19,89 20,90 20,100 21,101 21,110 22,111 22,117 21,118 20,118 19,117 19,114 18,113 18,105 17,104 17,97 16,96 16,88 15,87 15,81 14,80 14,71 13,70 13,64 12,63 12,56 11,55 11,49 10,48 10,46 10,56 11,57 11,64 12,65 12,74 13,75 13,82 14,83 14,90 15,91 15,99 16,100 16,107 17,108 17,116 18,117 18,118 17,119 15,119 14,118 14,111 13,110 13,105 12,104 12,98 11,97 11,90 10,89 10,83 9,82 9,75 8,74 8,69 7,68 7,62 6,61 6,53 5,52 5,50 6,49 6,45 7,44 7,41 8,40 Z M 218,36 219,35 221,35 225,39 225,40 228,43 228,44 230,46 230,47 231,48 230,49 229,49 228,48 226,48 222,52 221,52 220,53 218,53 217,54 215,54 214,53 215,52 215,48 216,47 216,46 217,45 217,43 218,42 217,42 216,43 215,42 214,42 214,44 212,46 211,46 210,47 209,47 208,46 206,46 203,43 204,42 206,42 207,43 208,43 209,42 210,42 212,40 213,40 216,37 217,37 Z M 88,35 89,34 92,37 92,38 93,39 93,41 94,42 94,43 92,46 91,46 88,43 88,41 89,40 89,39 88,38 88,36 Z M 58,32 59,31 60,32 60,34 59,35 59,36 58,37 57,40 54,43 53,43 52,42 53,41 53,39 55,37 55,36 58,33 Z M 85,30 86,29 88,31 88,32 89,33 89,34 88,35 87,35 86,34 86,33 85,32 85,31 Z M 182,29 183,28 184,28 185,29 183,31 183,32 181,34 180,33 180,31 181,30 Z M 88,22 84,26 84,27 83,28 83,33 86,38 86,41 84,43 83,43 81,41 80,41 79,40 77,40 76,39 74,39 73,38 70,38 65,42 64,42 63,43 61,43 59,41 59,40 62,35 62,28 61,27 61,26 58,23 56,23 57,24 57,30 56,31 56,32 52,36 52,37 50,40 50,47 51,48 51,49 58,56 57,57 57,64 58,65 57,66 57,68 58,69 56,72 54,70 50,70 49,71 49,78 44,82 44,83 42,85 42,86 41,87 41,89 40,90 40,93 38,96 38,99 40,101 39,102 39,104 38,105 38,106 42,106 43,107 43,108 42,109 42,113 41,114 41,116 40,117 37,118 33,122 32,121 32,118 30,115 29,115 26,117 25,117 24,116 24,107 23,106 23,97 22,96 22,85 21,84 21,76 20,75 20,65 19,64 19,55 18,54 18,49 17,48 17,46 16,45 15,42 13,40 12,37 8,32 6,35 6,38 5,39 5,41 4,42 4,46 3,47 3,56 4,57 4,64 5,65 5,71 6,72 6,78 7,79 7,86 8,87 8,92 9,93 9,99 10,100 10,107 11,108 11,115 12,116 12,118 11,119 5,119 4,122 5,123 6,126 8,126 9,127 11,127 12,128 12,135 13,136 13,138 14,139 14,141 16,143 17,143 18,144 18,149 19,150 18,151 18,156 19,157 19,158 20,158 21,159 24,159 25,158 26,158 28,155 28,152 26,150 26,149 25,148 25,142 26,141 27,141 28,140 30,140 33,138 36,138 37,137 38,137 39,138 39,139 38,140 38,142 37,143 37,144 36,145 36,146 35,147 35,148 34,149 34,150 33,151 33,152 32,153 31,156 29,158 28,161 25,164 25,165 23,167 22,170 19,173 19,174 16,177 16,178 14,180 14,181 11,184 11,185 9,187 8,190 6,192 6,193 5,194 5,195 2,200 2,202 1,203 1,205 0,206 0,222 1,223 1,225 2,226 2,227 4,229 4,230 6,232 6,233 9,236 10,236 12,238 13,238 13,236 12,235 12,218 14,216 19,216 22,219 22,225 26,229 27,229 28,230 31,230 32,231 41,231 42,232 42,235 41,236 41,244 40,245 40,246 39,247 38,247 34,251 33,251 31,253 30,253 25,256 25,257 24,258 24,260 25,261 25,262 28,262 29,263 37,263 38,262 43,262 44,261 50,261 51,260 55,260 56,259 57,259 57,258 58,257 58,253 57,252 57,240 58,239 58,236 59,235 59,233 60,232 60,230 62,228 63,228 64,227 67,227 70,229 69,230 69,234 71,236 72,236 73,237 79,237 80,236 82,236 83,235 85,235 88,233 90,233 93,236 93,237 95,240 95,243 96,244 96,247 97,248 97,258 96,259 96,264 101,267 109,267 110,266 112,266 113,267 110,270 110,273 113,275 121,275 122,274 125,274 128,272 130,272 131,271 133,271 134,270 137,270 138,269 138,261 137,260 137,251 138,250 138,246 139,245 139,242 140,241 140,239 141,238 142,239 145,239 146,240 154,240 155,239 158,239 159,238 160,238 161,237 162,237 167,234 169,234 171,236 171,237 172,238 172,240 173,241 173,243 175,246 175,249 176,250 176,252 177,253 177,255 178,256 178,268 179,269 179,275 181,277 183,277 184,278 191,278 192,277 194,277 196,274 196,273 195,272 195,270 194,269 194,268 192,265 192,263 190,260 190,256 189,255 189,251 188,250 188,249 189,248 192,250 194,250 195,251 197,251 200,253 200,254 199,255 199,258 198,259 198,262 199,263 199,264 202,267 204,267 205,268 207,268 208,267 210,267 213,265 213,264 214,263 214,259 213,258 213,256 214,255 230,255 230,253 232,251 233,251 234,252 236,252 237,253 237,258 239,260 246,260 249,262 252,262 253,263 264,263 266,261 265,258 263,256 260,255 257,252 258,251 260,251 261,250 262,250 263,249 266,248 268,246 269,246 269,245 270,244 270,242 269,241 269,238 272,235 272,232 271,231 271,229 270,228 270,226 269,225 269,223 268,222 268,219 267,218 267,216 266,215 266,213 265,212 265,208 264,207 264,205 263,204 263,202 262,201 262,198 261,197 261,194 260,193 260,191 259,190 259,187 258,186 258,183 257,182 257,179 256,178 256,176 255,175 255,172 254,171 254,168 253,167 253,165 252,164 252,161 251,160 251,158 250,157 250,155 249,154 249,151 248,150 248,148 247,147 247,145 246,144 245,141 246,140 249,143 249,144 264,159 265,159 266,160 268,160 269,159 269,157 270,156 270,153 271,152 271,149 272,148 272,139 273,138 273,135 274,134 275,135 275,154 274,155 274,256 277,258 278,257 279,257 281,254 281,176 282,175 282,135 284,133 284,131 285,130 285,127 286,126 285,125 285,121 282,119 282,110 283,109 283,106 284,105 284,100 283,99 283,95 285,93 285,92 286,91 286,89 285,88 285,86 284,85 284,84 286,82 287,82 289,80 290,80 290,79 292,77 292,69 292,72 291,73 291,74 289,76 289,77 287,79 286,79 284,81 283,81 278,86 278,87 277,88 277,92 281,98 281,99 280,100 276,96 276,95 274,92 274,87 275,86 275,85 277,83 277,82 278,81 279,81 282,78 283,78 286,75 287,75 287,74 289,72 289,71 290,70 290,62 291,61 292,62 292,64 292,57 287,53 285,53 284,54 285,55 285,56 287,58 287,60 288,61 288,69 286,71 285,70 285,69 286,68 286,64 285,63 285,62 282,59 280,59 279,58 279,57 281,55 281,54 282,53 282,51 283,50 283,47 282,46 282,44 281,43 281,42 279,40 277,40 276,41 276,43 275,44 275,47 274,48 274,49 272,51 271,51 265,57 265,58 263,60 263,62 262,63 262,70 263,71 263,73 264,74 265,77 268,80 269,80 271,82 272,82 273,83 273,84 272,85 272,87 271,88 271,91 272,92 272,94 274,97 274,107 275,108 275,118 274,119 273,119 271,121 271,122 270,123 260,123 259,122 256,122 254,120 254,119 252,116 252,114 251,113 251,111 250,110 250,107 249,106 249,103 248,102 249,101 249,98 246,95 245,95 243,93 245,91 246,91 249,89 248,86 243,81 244,80 244,73 246,71 248,71 249,70 252,69 254,67 255,67 258,64 258,63 259,62 259,59 257,57 256,57 255,56 252,56 251,55 246,55 245,54 238,54 237,53 236,50 232,45 232,44 229,41 229,40 227,38 227,37 223,33 222,33 221,32 219,32 218,33 217,33 215,35 214,35 210,39 209,39 208,40 200,40 199,41 198,41 198,43 203,47 204,47 207,49 211,49 212,50 212,54 211,55 211,59 210,60 210,61 208,63 207,63 206,64 205,64 200,67 198,67 196,69 194,69 193,68 193,67 192,66 192,65 191,64 191,63 190,62 190,61 189,60 189,59 186,54 186,52 184,49 184,46 183,45 183,35 186,32 186,31 187,30 187,27 184,25 181,26 179,28 179,29 178,30 178,32 177,33 177,37 176,38 176,42 175,43 175,46 174,47 174,49 173,50 173,52 172,53 172,56 171,57 171,59 170,60 169,60 168,59 168,55 167,54 167,52 166,51 168,48 168,44 167,43 166,43 166,44 165,45 161,41 160,41 158,39 157,39 156,38 147,38 146,39 143,40 141,42 140,42 139,43 139,44 137,46 136,45 135,45 135,50 136,51 136,53 135,54 135,69 134,70 133,70 131,67 131,57 130,56 130,55 129,54 129,53 128,52 127,49 126,49 125,50 125,51 123,53 121,51 119,51 119,54 118,55 117,55 116,54 114,54 113,55 115,58 114,59 112,59 111,58 110,58 110,60 111,61 111,62 113,64 113,65 115,67 115,68 116,69 118,69 119,70 120,70 124,75 122,77 122,80 123,81 123,82 125,84 124,87 121,90 121,91 120,92 119,95 117,97 116,96 116,94 115,93 115,92 114,91 114,90 113,89 113,88 112,87 112,86 111,85 110,82 106,78 105,78 103,76 103,70 101,68 100,68 99,69 97,69 95,71 94,71 87,78 85,76 85,75 91,69 91,67 90,66 90,57 89,56 89,54 94,50 94,49 96,46 96,39 95,38 94,35 90,31 90,30 89,29 89,24 90,23 90,22 89,22 Z M 40,4 39,5 34,5 33,6 31,6 30,7 28,7 27,8 26,8 25,9 22,10 19,13 18,13 11,20 11,21 9,23 9,24 8,25 7,28 10,28 11,29 12,28 12,27 14,25 14,24 24,14 25,14 26,13 27,13 32,10 35,10 36,9 40,9 41,8 252,8 253,9 257,9 258,10 261,10 262,11 263,11 264,12 265,12 266,13 269,14 273,18 274,18 277,21 277,22 280,25 280,26 282,28 282,30 284,33 284,35 285,36 285,39 286,40 286,45 287,46 287,49 288,49 289,50 291,50 291,47 290,46 290,38 289,37 289,34 288,33 288,31 287,30 287,29 286,28 286,27 285,26 284,23 282,21 282,20 274,12 273,12 271,10 270,10 265,7 263,7 262,6 260,6 259,5 254,5 253,4 41,4 Z" fill="#fff" fill-rule="evenodd" clip-rule="evenodd" /></svg>