<svg width="86" height="89" viewBox="0 0 86 89" fill="none" xmlns="http://www.w3.org/2000/svg">
<path d="M28.3051 76.6901C31.0051 72.7901 31.0052 68.7901 31.7052 64.8901C33.6052 54.5901 35.8052 44.1901 38.2052 33.9901C38.5052 32.7901 38.8051 31.4901 39.3051 30.2901C40.4051 27.1901 41.2051 27.1901 44.0051 28.7901C46.6051 30.3901 47.8052 32.2901 48.1052 35.3901C49.5052 48.1901 51.0051 60.9901 54.3051 73.4901C54.8051 75.1901 54.3051 78.1901 56.8051 78.0901C58.7051 77.9901 58.5052 75.1901 58.9052 73.5901C60.8052 65.7901 63.0052 58.1901 65.4052 50.4901C66.3052 47.4901 67.8051 44.8901 70.3051 42.8901C74.4051 45.2901 76.2052 48.8901 77.4052 53.2901C79.3052 60.2901 80.9051 67.3901 83.8051 74.0901C84.4051 75.3901 84.6052 76.8901 84.9052 78.2901C85.7052 82.2901 84.1052 84.8901 80.2052 86.0901C76.1052 87.2901 71.9051 86.6901 67.8051 86.5901C65.6051 86.5901 63.5051 85.9901 61.3051 86.5901C60.6051 86.7901 59.7051 87.0901 59.3051 86.4901C57.3051 82.8901 54.9051 84.8901 52.3051 85.6901C46.4051 87.4901 40.2051 87.8901 34.0051 87.1901C30.7051 86.7901 29.4052 83.6901 29.2052 80.2901C28.5052 80.6901 27.9052 80.8901 27.9052 80.9901C29.0052 85.6901 25.6051 87.2901 22.3051 87.9901C16.0051 89.2901 9.70518 89.3901 3.60518 86.8901C1.90518 86.1901 1.00518 85.2901 1.10518 83.2901C1.10518 79.2901 1.50517 75.4901 2.90517 71.5901C5.80517 63.1901 9.40515 55.0901 12.5051 46.7901C13.3051 44.7901 13.8052 42.3901 16.7052 42.4901C19.2052 42.5901 21.8052 45.0901 22.4052 47.8901C24.3052 57.5901 26.3051 67.0901 28.3051 76.6901Z" fill="#fff"/>
<path d="M58.0054 27.6902C57.6054 24.4902 59.4054 21.2902 62.5054 19.1902C64.8054 17.6902 65.5054 15.7902 65.5054 13.2902C65.6054 10.5902 65.8054 7.7902 66.8054 5.2902C67.4054 3.8902 67.9054 2.2902 70.2054 2.3902C72.5054 2.4902 72.4055 4.1902 72.4055 5.3902C72.7055 11.7902 74.5054 17.1902 80.5054 20.5902C82.2054 21.4902 82.7054 23.3902 81.8054 25.3902C81.3054 26.5902 81.2055 27.7902 81.1055 29.0902C80.3055 36.4902 74.8054 40.0902 67.5054 38.1902C66.6054 37.9902 65.8055 37.5902 64.9055 37.3902C59.4055 36.0902 57.9054 34.1902 58.0054 27.6902Z" fill="#fff"/>
<path d="M56.1058 13.5903C56.3058 20.0903 52.6057 23.8903 47.3057 22.8903C43.3057 22.1903 39.4058 22.3903 35.4058 22.2903C28.9058 22.0903 26.4058 19.5903 27.2058 13.1903C27.7058 9.09031 29.2058 5.09031 31.7058 1.69031C32.4058 0.690314 33.3057 -0.309692 34.8057 0.0903081C36.5057 0.490308 37.2057 1.59031 37.3057 3.19031C37.4057 4.29031 37.5057 5.39033 37.5057 6.39033C37.3057 8.59033 38.0058 9.79033 40.4058 9.89033C42.7058 9.99033 43.7058 9.09032 43.7058 6.79032C43.7058 5.89032 43.8057 4.99031 44.0057 4.09031C44.5057 2.09031 45.2058 -0.30968 47.6058 0.29032C49.7058 0.79032 52.8058 -1.20969 53.7058 3.19031C54.6058 6.99031 55.5058 10.7903 56.1058 13.5903Z" fill="#fff"/>
<path d="M7.00583 21.9904C8.00583 21.9904 9.20587 21.5904 10.1059 22.0904C13.9059 23.9904 17.9058 23.3904 21.8058 23.0904C24.7058 22.7904 26.6058 23.8904 28.3058 26.0904C29.7058 27.7904 30.4058 29.5904 29.5058 31.5904C28.5058 33.6904 27.0058 35.6904 24.2058 35.6904C23.5058 35.6904 22.7058 35.7904 22.0058 35.6904C18.1058 34.8904 14.2058 35.1904 10.2058 35.6904C6.60584 36.0904 3.30584 35.2904 1.20584 31.8904C-0.194159 29.6904 -0.394159 27.2904 0.705841 25.1904C1.90584 22.8904 3.70583 20.7904 7.00583 21.9904Z" fill="#fff"/>
</svg>
