<svg xmlns="http://www.w3.org/2000/svg" xmlns:xlink="http://www.w3.org/1999/xlink"><symbol viewBox="0 -960 960 960" fill="currentColor" id="check_circle"><path d="m424-296 282-282-56-56-226 226-114-114-56 56 170 170Zm56 216q-83 0-156-31.5T197-197q-54-54-85.5-127T80-480q0-83 31.5-156T197-763q54-54 127-85.5T480-880q83 0 156 31.5T763-763q54 54 85.5 127T880-480q0 83-31.5 156T763-197q-54 54-127 85.5T480-80Zm0-80q134 0 227-93t93-227q0-134-93-227t-227-93q-134 0-227 93t-93 227q0 134 93 227t227 93Zm0-320Z"/></symbol><symbol viewBox="0 -960 960 960" fill="currentColor" id="close"><path d="M480-424 284-228q-11 11-28 11t-28-11q-11-11-11-28t11-28l196-196-196-196q-11-11-11-28t11-28q11-11 28-11t28 11l196 196 196-196q11-11 28-11t28 11q11 11 11 28t-11 28L536-480l196 196q11 11 11 28t-11 28q-11 11-28 11t-28-11L480-424Z"/></symbol><symbol viewBox="0 -960 960 960" fill="currentColor" id="delete"><path d="M280-120q-33 0-56.5-23.5T200-200v-520h-40v-80h200v-40h240v40h200v80h-40v520q0 33-23.5 56.5T680-120H280Zm400-600H280v520h400v-520ZM360-280h80v-360h-80v360Zm160 0h80v-360h-80v360ZM280-720v520-520Z"/></symbol><symbol viewBox="0 -960 960 960" fill="currentColor" id="error"><path d="M480-280q17 0 28.5-11.5T520-320q0-17-11.5-28.5T480-360q-17 0-28.5 11.5T440-320q0 17 11.5 28.5T480-280Zm-40-160h80v-240h-80v240Zm40 360q-83 0-156-31.5T197-197q-54-54-85.5-127T80-480q0-83 31.5-156T197-763q54-54 127-85.5T480-880q83 0 156 31.5T763-763q54 54 85.5 127T880-480q0 83-31.5 156T763-197q-54 54-127 85.5T480-80Zm0-80q134 0 227-93t93-227q0-134-93-227t-227-93q-134 0-227 93t-93 227q0 134 93 227t227 93Zm0-320Z"/></symbol><symbol viewBox="0 0 48 48" id="google_logo"><path fill="#FFC107" d="M43.611,20.083H42V20H24v8h11.303c-1.649,4.657-6.08,8-11.303,8c-6.627,0-12-5.373-12-12c0-6.627,5.373-12,12-12c3.059,0,5.842,1.154,7.961,3.039l5.657-5.657C34.046,6.053,29.268,4,24,4C12.955,4,4,12.955,4,24c0,11.045,8.955,20,20,20c11.045,0,20-8.955,20-20C44,22.659,43.862,21.35,43.611,20.083z"/><path fill="#FF3D00" d="M6.306,14.691l6.571,4.819C14.655,15.108,18.961,12,24,12c3.059,0,5.842,1.154,7.961,3.039l5.657-5.657C34.046,6.053,29.268,4,24,4C16.318,4,9.656,8.337,6.306,14.691z"/><path fill="#4CAF50" d="M24,44c5.166,0,9.86-1.977,13.409-5.192l-6.19-5.238C29.211,35.091,26.715,36,24,36c-5.202,0-9.619-3.317-11.283-7.946l-6.522,5.025C9.505,39.556,16.227,44,24,44z"/><path fill="#1976D2" d="M43.611,20.083H42V20H24v8h11.303c-0.792,2.237-2.231,4.166-4.087,5.571c0.001-0.001,0.002-0.001,0.003-0.002l6.19,5.238C36.971,39.205,44,34,44,24C44,22.659,43.862,21.35,43.611,20.083z"/></symbol><symbol viewBox="0 -960 960 960" fill="currentColor" id="notifications"><path d="M160-200v-80h80v-280q0-83 50-147.5T420-792v-28q0-25 17.5-42.5T480-880q25 0 42.5 17.5T540-820v28q80 20 130 84.5T720-560v280h80v80H160Zm320-300Zm0 420q-33 0-56.5-23.5T400-160h160q0 33-23.5 56.5T480-80ZM320-280h320v-280q0-66-47-113t-113-47q-66 0-113 47t-47 113v280Z"/></symbol><symbol viewBox="0 -960 960 960" fill="currentColor" id="upload_file"><path d="M440-200h80v-167l64 64 56-57-160-160-160 160 57 56 63-63v167ZM240-80q-33 0-56.5-23.5T160-160v-640q0-33 23.5-56.5T240-880h320l240 240v480q0 33-23.5 56.5T720-80H240Zm280-520v-200H240v640h480v-440H520ZM240-800v200-200 640-640Z"/></symbol><symbol viewBox="0 -960 960 960" fill="currentColor" id="west"><path d="M360-200 80-480l280-280 56 56-183 184h647v80H233l184 184-57 56Z"/></symbol></svg>